# xmcd CD database file
# Copyright (C) 1995-1998 Ti Kan
#
# Track frame offsets:
#	150
#	16812
#	34097
#	48377
#	66687
#	84665
#	103955
#	124742
#	144162
#	162612
#	174077
#	194712
#	215237
#	239097
#
# Disc length: 3636 seconds
#
# Revision: 2
# Processed by: cddbd v1.4PL0 Copyright (c) Steve Scherf et al.
# Submitted via: CDex 1.30Release
#
DISCID=d60e320e
DTITLE=Ricky Skaggs - Live In London
DYEAR=1985
DGENRE=Country
TTITLE0=Uncle Pen
TTITLE1=I've Got A New Heartache
TTITLE2=Heartbroke
TTITLE3=She Didn't Say Why
TTITLE4=Cajun Moon
TTITLE5=You Make Me Feel Like A Man
TTITLE6=Rendezvous
TTITLE7=Rockin' The Boat
TTITLE8=Honey (Open That Door)
TTITLE9=Talk About Suffering
TTITLE10=Country Boy
TTITLE11=Highway 40 Blues
TTITLE12=Waitin' For The Sun To Shine
TTITLE13=Don't Get Above Your Raising
EXTD=YEAR: 1985 ID3G:   2
EXTT0=
EXTT1=
EXTT2=
EXTT3=
EXTT4=
EXTT5=
EXTT6=
EXTT7=
EXTT8=
EXTT9=
EXTT10=
EXTT11=
EXTT12=
EXTT13=
PLAYORDER=
